{
  "accessors": [
    {
      "bufferView": 2,
      "componentType": 5126,
      "count": 4015,
      "max": [
        0.18470700085163116,
        0.34965598583221436,
        0.7402229905128479
      ],
      "min": [
        -0.21748800575733185,
        0.039285000413656235,
        -0.0086829997599124908
      ],
      "type": "VEC3"
    },
    {
      "bufferView": 2,
      "byteOffset": 48180,
      "componentType": 5126,
      "count": 4015,
      "max": [
        1,
        1,
        1
      ],
      "min": [
        -1,
        -1,
        -0.99999940395355225
      ],
      "type": "VEC3"
    },
    {
      "bufferView": 3,
      "componentType": 5126,
      "count": 4015,
      "max": [
        1,
        1,
        0.99999666213989258,
        1
      ],
      "min": [
        -1,
        -1,
        -1,
        1
      ],
      "type": "VEC4"
    },
    {
      "bufferView": 1,
      "componentType": 5126,
      "count": 4015,
      "max": [
        0.95847302675247192,
        0.96780800819396973
      ],
      "min": [
        0.0033390000462532043,
        0.0032460000365972519
      ],
      "type": "VEC2"
    },
    {
      "bufferView": 0,
      "componentType": 5125,
      "count": 19296,
      "max": [
        4014
      ],
      "min": [
        0
      ],
      "type": "SCALAR"
    },
    {
      "bufferView": 2,
      "byteOffset": 96360,
      "componentType": 5126,
      "count": 4896,
      "max": [
        0.17558500170707703,
        0.31289499998092651,
        0.85006600618362427
      ],
      "min": [
        -0.22157299518585205,
        -0.31702700257301331,
        0.10134299844503403
      ],
      "type": "VEC3"
    },
    {
      "bufferView": 2,
      "byteOffset": 155112,
      "componentType": 5126,
      "count": 4896,
      "max": [
        1,
        1,
        1
      ],
      "min": [
        -1,
        -1,
        -1
      ],
      "type": "VEC3"
    },
    {
      "bufferView": 3,
      "byteOffset": 64240,
      "componentType": 5126,
      "count": 4896,
      "max": [
        0.99999183416366577,
        1,
        0.99980407953262329,
        1
      ],
      "min": [
        -1,
        -0.9999997615814209,
        -1,
        1
      ],
      "type": "VEC4"
    },
    {
      "bufferView": 1,
      "byteOffset": 32120,
      "componentType": 5126,
      "count": 4896,
      "max": [
        0.95694798231124878,
        0.95572799444198608
      ],
      "min": [
        0.0036420000251382589,
        0.0032460000365972519
      ],
      "type": "VEC2"
    },
    {
      "bufferView": 0,
      "byteOffset": 77184,
      "componentType": 5125,
      "count": 23904,
      "max": [
        4895
      ],
      "min": [
        0
      ],
      "type": "SCALAR"
    },
    {
      "bufferView": 2,
      "byteOffset": 213864,
      "componentType": 5126,
      "count": 6140,
      "max": [
        0.19280299544334412,
        0.34490498900413513,
        0.71925199031829834
      ],
      "min": [
        -0.2201479971408844,
        -0.26441100239753723,
        0.10255700349807739
      ],
      "type": "VEC3"
    },
    {
      "bufferView": 2,
      "byteOffset": 287544,
      "componentType": 5126,
      "count": 6140,
      "max": [
        1,
        1,
        1
      ],
      "min": [
        -1,
        -0.99999284744262695,
        -1
      ],
      "type": "VEC3"
    },
    {
      "bufferView": 3,
      "byteOffset": 142576,
      "componentType": 5126,
      "count": 6140,
      "max": [
        0.99999988079071045,
        1,
        0.99999940395355225,
        1
      ],
      "min": [
        -1,
        -0.9997747540473938,
        -0.99999946355819702,
        1
      ],
      "type": "VEC4"
    },
    {
      "bufferView": 1,
      "byteOffset": 71288,
      "componentType": 5126,
      "count": 6140,
      "max": [
        0.95573997497558594,
        0.95296400785446167
      ],
      "min": [
        0.29577600955963135,
        0.17943300306797028
      ],
      "type": "VEC2"
    },
    {
      "bufferView": 0,
      "byteOffset": 172800,
      "componentType": 5125,
      "count": 32280,
      "max": [
        6139
      ],
      "min": [
        0
      ],
      "type": "SCALAR"
    },
    {
      "bufferView": 2,
      "byteOffset": 361224,
      "componentType": 5126,
      "count": 5,
      "max": [
        -0.013094999827444553,
        0.17032800614833832,
        0.77071899175643921
      ],
      "min": [
        -0.01513299997895956,
        0.16694200038909912,
        0.76677900552749634
      ],
      "type": "VEC3"
    },
    {
      "bufferView": 1,
      "byteOffset": 120408,
      "componentType": 5126,
      "count": 5,
      "max": [
        0,
        0
      ],
      "min": [
        0,
        0
      ],
      "type": "VEC2"
    },
    {
      "bufferView": 0,
      "byteOffset": 301920,
      "componentType": 5125,
      "count": 8,
      "max": [
        4
      ],
      "min": [
        0
      ],
      "type": "SCALAR"
    },
    {
      "bufferView": 2,
      "byteOffset": 361284,
      "componentType": 5126,
      "count": 18336,
      "max": [
        0.24546000361442566,
        0.3554379940032959,
        0.78063100576400757
      ],
      "min": [
        -0.24047699570655823,
        -0.32301801443099976,
        -0.0010610000463202596
      ],
      "type": "VEC3"
    },
    {
      "bufferView": 2,
      "byteOffset": 581316,
      "componentType": 5126,
      "count": 18336,
      "max": [
        1,
        1,
        1
      ],
      "min": [
        -1,
        -1,
        -1
      ],
      "type": "VEC3"
    },
    {
      "bufferView": 3,
      "byteOffset": 240816,
      "componentType": 5126,
      "count": 18336,
      "max": [
        0.99995934963226318,
        1,
        1,
        1
      ],
      "min": [
        -0.99998015165328979,
        -1,
        -0.99998784065246582,
        1
      ],
      "type": "VEC4"
    },
    {
      "bufferView": 1,
      "byteOffset": 120448,
      "componentType": 5126,
      "count": 18336,
      "max": [
        0.97045302391052246,
        0.99664199352264404
      ],
      "min": [
        0.0034580000210553408,
        0.0032579998951405287
      ],
      "type": "VEC2"
    },
    {
      "bufferView": 0,
      "byteOffset": 301952,
      "componentType": 5125,
      "count": 97236,
      "max": [
        18335
      ],
      "min": [
        0
      ],
      "type": "SCALAR"
    }
  ],
  "asset": {
    "extras": {
      "author": "Xill (https://sketchfab.com/Xill)",
      "license": "CC-BY-4.0 (http://creativecommons.org/licenses/by/4.0/)",
      "source": "https://sketchfab.com/models/24d1b493899d407780140688abae19bc",
      "title": "Toilet"
    },
    "generator": "Sketchfab-3.19.4",
    "version": "2.0"
  },
  "bufferViews": [
    {
      "buffer": 0,
      "byteLength": 690896,
      "byteOffset": 0,
      "name": "floatBufferViews",
      "target": 34963
    },
    {
      "buffer": 0,
      "byteLength": 267136,
      "byteOffset": 690896,
      "byteStride": 8,
      "name": "floatBufferViews",
      "target": 34962
    },
    {
      "buffer": 0,
      "byteLength": 801348,
      "byteOffset": 958032,
      "byteStride": 12,
      "name": "floatBufferViews",
      "target": 34962
    },
    {
      "buffer": 0,
      "byteLength": 534192,
      "byteOffset": 1759380,
      "byteStride": 16,
      "name": "floatBufferViews",
      "target": 34962
    }
  ],
  "buffers": [
    {
      "byteLength": 2293572,
      "uri": "scene.bin"
    }
  ],
  "images": [
    {
      "uri": "textures/Scene_-_Root_metallicRoughness.png"
    },
    {
      "uri": "textures/Scene_-_Root_normal.png"
    },
    {
      "uri": "textures/Scene_-_Root_baseColor.png"
    }
  ],
  "materials": [
    {
      "doubleSided": true,
      "emissiveFactor": [
        0,
        0,
        0
      ],
      "name": "Scene_-_Root",
      "normalTexture": {
        "index": 1,
        "scale": 1,
        "texCoord": 0
      },
      "occlusionTexture": {
        "index": 0,
        "strength": 1,
        "texCoord": 0
      },
      "pbrMetallicRoughness": {
        "baseColorFactor": [
          1,
          1,
          1,
          1
        ],
        "baseColorTexture": {
          "index": 2,
          "texCoord": 0
        },
        "metallicFactor": 1,
        "metallicRoughnessTexture": {
          "index": 0,
          "texCoord": 0
        },
        "roughnessFactor": 1
      }
    }
  ],
  "meshes": [
    {
      "primitives": [
        {
          "attributes": {
            "NORMAL": 1,
            "POSITION": 0,
            "TANGENT": 2,
            "TEXCOORD_0": 3
          },
          "indices": 4,
          "material": 0,
          "mode": 4
        }
      ]
    },
    {
      "primitives": [
        {
          "attributes": {
            "NORMAL": 6,
            "POSITION": 5,
            "TANGENT": 7,
            "TEXCOORD_0": 8
          },
          "indices": 9,
          "material": 0,
          "mode": 4
        }
      ]
    },
    {
      "primitives": [
        {
          "attributes": {
            "NORMAL": 11,
            "POSITION": 10,
            "TANGENT": 12,
            "TEXCOORD_0": 13
          },
          "indices": 14,
          "material": 0,
          "mode": 4
        }
      ]
    },
    {
      "primitives": [
        {
          "attributes": {
            "POSITION": 15,
            "TEXCOORD_0": 16
          },
          "indices": 17,
          "material": 0,
          "mode": 1
        }
      ]
    },
    {
      "primitives": [
        {
          "attributes": {
            "NORMAL": 19,
            "POSITION": 18,
            "TANGENT": 20,
            "TEXCOORD_0": 21
          },
          "indices": 22,
          "material": 0,
          "mode": 4
        }
      ]
    }
  ],
  "nodes": [
    {
      "children": [
        1
      ],
      "name": "RootNode (gltf orientation matrix)",
      "rotation": [
        -0.70710678118654746,
        -0,
        -0,
        0.70710678118654757
      ]
    },
    {
      "children": [
        2
      ],
      "name": "RootNode (model correction matrix)"
    },
    {
      "children": [
        3,
        4,
        5,
        6,
        7
      ],
      "name": "Toilet_sub1.obj.cleaner.materialmerger.gles"
    },
    {
      "mesh": 0,
      "name": ""
    },
    {
      "mesh": 1,
      "name": ""
    },
    {
      "mesh": 2,
      "name": ""
    },
    {
      "mesh": 3,
      "name": ""
    },
    {
      "mesh": 4,
      "name": ""
    }
  ],
  "samplers": [
    {
      "magFilter": 9729,
      "minFilter": 9987,
      "wrapS": 10497,
      "wrapT": 10497
    }
  ],
  "scene": 0,
  "scenes": [
    {
      "name": "OSG_Scene",
      "nodes": [
        0
      ]
    }
  ],
  "textures": [
    {
      "sampler": 0,
      "source": 0
    },
    {
      "sampler": 0,
      "source": 1
    },
    {
      "sampler": 0,
      "source": 2
    }
  ]
}

