{
  "accessors": [
    {
      "bufferView": 2,
      "componentType": 5126,
      "count": 28408,
      "max": [
        83.012931823730469,
        -8.8167800903320312,
        228.02859497070312
      ],
      "min": [
        -85.595626831054688,
        -58.9691162109375,
        0.10801099985837936
      ],
      "type": "VEC3"
    },
    {
      "bufferView": 2,
      "byteOffset": 340896,
      "componentType": 5126,
      "count": 28408,
      "max": [
        0.99999135732650757,
        0.99991858005523682,
        1
      ],
      "min": [
        -0.99999749660491943,
        -1,
        -1
      ],
      "type": "VEC3"
    },
    {
      "bufferView": 1,
      "componentType": 5126,
      "count": 28408,
      "max": [
        3.9141249656677246,
        3.487476110458374
      ],
      "min": [
        -3.9297409057617188,
        -4.693209171295166
      ],
      "type": "VEC2"
    },
    {
      "bufferView": 0,
      "componentType": 5125,
      "count": 167481,
      "max": [
        28407
      ],
      "min": [
        0
      ],
      "type": "SCALAR"
    },
    {
      "bufferView": 2,
      "byteOffset": 681792,
      "componentType": 5126,
      "count": 28408,
      "max": [
        82.946357727050781,
        -8.7873420715332031,
        228.02859497070312
      ],
      "min": [
        -85.622444152832031,
        -58.947914123535156,
        0.10254199802875519
      ],
      "type": "VEC3"
    },
    {
      "bufferView": 2,
      "byteOffset": 1022688,
      "componentType": 5126,
      "count": 28408,
      "max": [
        0.99999576807022095,
        1,
        1
      ],
      "min": [
        -0.99998176097869873,
        -0.99991649389266968,
        -1
      ],
      "type": "VEC3"
    },
    {
      "bufferView": 1,
      "byteOffset": 227264,
      "componentType": 5126,
      "count": 28408,
      "max": [
        3.9141249656677246,
        3.487476110458374
      ],
      "min": [
        -3.9297409057617188,
        -4.693209171295166
      ],
      "type": "VEC2"
    },
    {
      "bufferView": 0,
      "byteOffset": 669924,
      "componentType": 5125,
      "count": 167481,
      "max": [
        28407
      ],
      "min": [
        0
      ],
      "type": "SCALAR"
    },
    {
      "bufferView": 2,
      "byteOffset": 1363584,
      "componentType": 5126,
      "count": 6965,
      "max": [
        82.425277709960938,
        -8.7649908065795898,
        228.06608581542969
      ],
      "min": [
        -85.643669128417969,
        -58.994762420654297,
        0.10512000322341919
      ],
      "type": "VEC3"
    },
    {
      "bufferView": 2,
      "byteOffset": 1447164,
      "componentType": 5126,
      "count": 6965,
      "max": [
        0.9994194507598877,
        0.9999922513961792,
        1
      ],
      "min": [
        -0.99997836351394653,
        -0.99999946355819702,
        -1
      ],
      "type": "VEC3"
    },
    {
      "bufferView": 1,
      "byteOffset": 454528,
      "componentType": 5126,
      "count": 6965,
      "max": [
        3.916388988494873,
        3.4909589290618896
      ],
      "min": [
        -3.9320058822631836,
        -4.6966919898986816
      ],
      "type": "VEC2"
    },
    {
      "bufferView": 0,
      "byteOffset": 1339848,
      "componentType": 5125,
      "count": 35388,
      "max": [
        6964
      ],
      "min": [
        0
      ],
      "type": "SCALAR"
    },
    {
      "bufferView": 2,
      "byteOffset": 1530744,
      "componentType": 5126,
      "count": 4800,
      "max": [
        75.4915771484375,
        -9.8808441162109375,
        52.863037109375
      ],
      "min": [
        -73.865837097167969,
        -30.949460983276367,
        40.922901153564453
      ],
      "type": "VEC3"
    },
    {
      "bufferView": 2,
      "byteOffset": 1588344,
      "componentType": 5126,
      "count": 4800,
      "max": [
        0.99979275465011597,
        0.99989122152328491,
        0.99994689226150513
      ],
      "min": [
        -0.99987262487411499,
        -0.99989086389541626,
        -0.99999785423278809
      ],
      "type": "VEC3"
    },
    {
      "bufferView": 1,
      "byteOffset": 510248,
      "componentType": 5126,
      "count": 4800,
      "max": [
        1402.4991455078125,
        49.698974609375
      ],
      "min": [
        -1407.6715087890625,
        -49.6988525390625
      ],
      "type": "VEC2"
    },
    {
      "bufferView": 0,
      "byteOffset": 1481400,
      "componentType": 5125,
      "count": 25116,
      "max": [
        4799
      ],
      "min": [
        0
      ],
      "type": "SCALAR"
    }
  ],
  "asset": {
    "extras": {
      "author": "Marc Sawyer - Whitewash Studio Architecture (https://sketchfab.com/whitewashstudio)",
      "license": "CC-BY-4.0 (http://creativecommons.org/licenses/by/4.0/)",
      "source": "https://sketchfab.com/3d-models/curtain-fabric-with-organic-pattern-0d672a10acf94737ba672b4f747f9c97",
      "title": "Curtain Fabric with Organic Pattern"
    },
    "generator": "Sketchfab-8.51.0",
    "version": "2.0"
  },
  "bufferViews": [
    {
      "buffer": 0,
      "byteLength": 1581864,
      "byteOffset": 0,
      "name": "floatBufferViews",
      "target": 34963
    },
    {
      "buffer": 0,
      "byteLength": 548648,
      "byteOffset": 1581864,
      "byteStride": 8,
      "name": "floatBufferViews",
      "target": 34962
    },
    {
      "buffer": 0,
      "byteLength": 1645944,
      "byteOffset": 2130512,
      "byteStride": 12,
      "name": "floatBufferViews",
      "target": 34962
    }
  ],
  "buffers": [
    {
      "byteLength": 3776456,
      "uri": "scene.bin"
    }
  ],
  "images": [
    {
      "uri": "textures/FABRIC_1_FRONT_3601_baseColor.jpeg"
    }
  ],
  "materials": [
    {
      "doubleSided": true,
      "emissiveFactor": [
        0,
        0,
        0
      ],
      "emissiveTexture": {
        "index": 0,
        "texCoord": 0
      },
      "name": "FABRIC_1_FRONT_3601",
      "pbrMetallicRoughness": {
        "baseColorFactor": [
          1,
          1,
          1,
          1
        ],
        "baseColorTexture": {
          "index": 0,
          "texCoord": 0
        },
        "metallicFactor": 0,
        "roughnessFactor": 0.9827475502465659
      }
    },
    {
      "doubleSided": true,
      "emissiveFactor": [
        0,
        0,
        0
      ],
      "name": "FABRIC_2_FRONT_13328",
      "pbrMetallicRoughness": {
        "baseColorFactor": [
          0.82352899999999996,
          0.82745100000000005,
          0.83529399999999998,
          1
        ],
        "metallicFactor": 0,
        "roughnessFactor": 0.9827475502465659
      }
    }
  ],
  "meshes": [
    {
      "primitives": [
        {
          "attributes": {
            "NORMAL": 1,
            "POSITION": 0,
            "TEXCOORD_0": 2
          },
          "indices": 3,
          "material": 0,
          "mode": 4
        }
      ]
    },
    {
      "primitives": [
        {
          "attributes": {
            "NORMAL": 5,
            "POSITION": 4,
            "TEXCOORD_0": 6
          },
          "indices": 7,
          "material": 0,
          "mode": 4
        }
      ]
    },
    {
      "primitives": [
        {
          "attributes": {
            "NORMAL": 9,
            "POSITION": 8,
            "TEXCOORD_0": 10
          },
          "indices": 11,
          "material": 0,
          "mode": 4
        }
      ]
    },
    {
      "primitives": [
        {
          "attributes": {
            "NORMAL": 13,
            "POSITION": 12,
            "TEXCOORD_0": 14
          },
          "indices": 15,
          "material": 1,
          "mode": 4
        }
      ]
    }
  ],
  "nodes": [
    {
      "children": [
        1
      ],
      "name": "RootNode (gltf orientation matrix)",
      "rotation": [
        -0.70710678118654746,
        -0,
        -0,
        0.70710678118654757
      ]
    },
    {
      "children": [
        2
      ],
      "name": "RootNode (model correction matrix)"
    },
    {
      "children": [
        3,
        4,
        5,
        6
      ],
      "name": "Curtain 1.obj.cleaner.materialmerger.gles"
    },
    {
      "mesh": 0,
      "name": ""
    },
    {
      "mesh": 1,
      "name": ""
    },
    {
      "mesh": 2,
      "name": ""
    },
    {
      "mesh": 3,
      "name": ""
    }
  ],
  "samplers": [
    {
      "magFilter": 9729,
      "minFilter": 9987,
      "wrapS": 10497,
      "wrapT": 10497
    }
  ],
  "scene": 0,
  "scenes": [
    {
      "name": "OSG_Scene",
      "nodes": [
        0
      ]
    }
  ],
  "textures": [
    {
      "sampler": 0,
      "source": 0
    }
  ]
}

